<svg width="2870" height="583" viewBox="0 0 2870 583" fill="none" xmlns="http://www.w3.org/2000/svg">
<path d="M340.195 209.537C340.195 209.537 346.408 240.075 345.735 255.574C344.925 274.206 341.152 293.086 334.296 310.229C325.148 333.104 310.436 353.067 295.656 372.09C277.379 395.614 234.397 435.933 234.397 435.933C197.881 472.018 71.5718 552.965 97.6359 575.371L29.9861 582.201C64.6092 541.996 103.206 509.911 145.082 480.209C145.082 480.209 183.322 453.403 201.759 438.895C223.674 421.652 245.897 404.61 265.797 384.604C282.998 367.313 300.566 349.63 313.279 328.154C322.644 312.336 329.203 294.397 333.666 276.218C336.452 264.872 337.874 252.974 337.481 241.275C337.122 230.567 331.861 209.801 331.861 209.801L340.195 209.537Z" fill="#552200" stroke="black" stroke-width="0.334007"/>
<path d="M219.613 31.7109C233.337 41.6094 247.216 51.3689 262.086 58.5327C269.019 61.9574 276.155 64.7466 283.212 67.759C270.116 63.4856 257.052 58.7626 244.705 51.8649C237.668 48.0179 230.684 44.0131 223.673 40.0966L286.794 75.8479L232.61 52.6156L295.153 86.0414L237.056 68.5072L302.053 96.3401L243.321 96.3077L304.525 103.207L258.228 113.173L306.935 110.608L272.697 126.225C255.161 121.438 235.95 125.677 221.938 139.208C215.785 145.041 211.087 152.732 206.936 160.713C203.961 166.103 201.102 171.795 197.022 176.037C192.495 179.713 186.047 178.869 181.907 174.473C181.313 174.088 181.887 174.754 181.974 174.965C185.724 180.94 191.636 185.858 197.965 185.068C203.601 183.524 207.129 177.227 209.277 171.119C213.057 160.889 217.429 150.503 224.634 143.282C216.368 154.432 212.405 169.018 207.971 182.823C206.298 188.462 202.81 194.139 197.627 194.975C194.241 195.459 190.841 194.283 187.687 192.772C193.091 199.287 202.534 200.897 208.441 194.924C211.905 190.307 213.387 184.081 215.197 178.324C218.069 168.026 221.425 157.57 227.628 149.592C229.422 147.233 231.425 145.098 233.634 143.334C225.306 153.025 221.141 166.723 218.657 180.249C217.021 188.819 215.733 198.225 210.496 204.696C206.897 208.875 201.85 210.589 196.958 210.971C206.198 213.943 216.098 206.656 219.269 196.043C221.814 187.533 222.351 178.242 225.397 169.936C229.441 158.207 236.605 147.68 246.325 142.63C239.645 148.443 233.777 156.009 230.603 165.397C226.185 177.39 225.335 190.723 223.787 203.637C223.398 206.318 222.823 209.05 221.996 211.644C194.439 237.477 180.084 257.045 179.172 315.557L187.215 280.134C185.318 302.123 188.731 312.255 186.834 334.247C192.364 310.799 192.585 299.196 198.115 275.746C198.651 298.908 205.276 309.118 205.813 332.281C208.773 307.373 206.939 288.064 209.899 263.156C215.261 282.966 217.604 294.718 222.965 314.528C220.055 293.983 220.599 274.2 217.688 253.655C225.123 267.591 230.822 296.175 238.257 310.108C233.335 295.149 230.589 258.246 225.666 243.286C233.527 256.051 239.221 290.771 247.082 303.538C246.247 301.162 245.429 298.761 244.633 296.365L251.701 315.037C246.548 295.802 239.383 255.988 234.229 236.751C240.807 252.213 249.405 288.244 255.983 303.709C252.528 287.124 248.132 254.021 244.677 237.436C249.58 253.12 255.413 285.322 260.316 301.008C257.8 287.925 253.835 255.148 252.522 241.807C255.427 257.834 260.286 293.404 263.192 309.431C262.509 288.817 256.76 254.104 256.077 233.495C258.219 249.442 265.42 279.49 267.562 295.436C267.425 278.481 266.039 254.362 265.902 237.408C267.335 256.735 270.026 283.229 271.459 302.553L275.281 242.318L277.924 284.774L281.459 239.815L285.415 299.017L289.806 242.795L288.856 289.607L299.809 226.454L294.663 278.413L303.734 230.09L300.161 280.473L301.723 274.233L308.014 270.229L306.951 278.288L308.689 269.803L315.795 265.266L315.75 266.81L293.818 298.53L312.24 277.318C307.21 287.322 302.455 297.722 299.847 309.078C297.906 323.521 293.11 337.064 290.163 351.197C289.578 353.865 289.047 356.545 288.504 359.226L299.982 329.964L288.695 384.852C292.355 367.969 298.192 351.967 303.775 335.932C303.384 346.129 301.982 356.231 301.668 366.435C300.746 385.986 301.527 405.592 303.163 425.056C303.354 406.805 304.31 388.564 306.261 370.461C306.447 368.74 306.616 367.023 306.788 365.301C306.976 376.605 307.078 387.908 307.682 399.194C309.092 381.651 311.296 364.226 313.197 346.758C313.408 344.973 313.582 343.191 313.766 341.402C314.53 351.298 315.327 361.183 316.53 371.017L312.828 302.972L322.272 342.76L316.961 290.404C319.348 298.712 321.504 307.111 323.924 315.405C323.414 302.942 322.883 290.431 323.741 277.972C324.044 277.208 324.539 276.598 325.014 275.99C326.589 280.026 327.83 284.242 329.298 288.335C331.454 280.709 334.241 273.399 337.384 266.315C339.795 264.291 342.207 262.272 344.659 260.321C346.228 269.494 346.474 279.234 344.054 288.228C343.607 288.702 344.637 288.848 344.424 288.229C347.114 282.983 348.866 277.065 349.772 270.993C355.049 285.634 357.326 301.469 360.381 316.923C362.15 326.347 364.611 335.545 367.092 344.718C368.115 349.118 368.788 353.655 368.948 358.228C369.616 355.282 369.992 352.255 370.381 349.24C371.768 359.273 370.584 369.454 369.603 379.455C369.505 380.324 369.373 381.192 369.381 382.072C373.393 373.573 377.831 365.101 379.648 355.429C381.235 346.694 380.489 337.665 379.485 328.9C379.766 328.512 380.012 329.465 380.266 329.637C386.19 338.25 389.907 349.323 389.756 360.633C389.68 372.713 386.702 384.35 385.271 396.225C384.655 401.151 384.592 406.229 385.542 411.101C386.88 418.459 390.109 425.377 394.903 430.208C394.94 430.975 396.166 430.442 395.585 429.895C390.708 421.901 388.905 411.488 389.986 401.702C390.79 395.112 392.382 388.713 393.491 382.197C395.04 374.124 396.437 365.972 396.872 357.682C398 369.341 396.689 381.058 395.875 392.679C395.587 396.409 395.453 400.154 395.558 403.899C397.9 390.403 400.679 376.91 401.146 363.067C401.604 351.076 399.641 338.786 394.715 328.304C389.15 315.997 382.16 304.765 375.075 293.711C384.031 303.92 392.994 314.118 401.982 324.283C391.624 311.418 382.475 297.222 373.254 283.166C371.559 280.827 369.743 278.62 367.768 276.631C376.609 281.852 383.939 289.981 391.194 297.886C388.343 292.714 385.449 287.546 382.238 282.691C385.334 278.887 388.332 275.077 391.33 271.269C394.815 277.693 391.678 284.757 392.913 291.408C393.024 296.364 393.221 301.317 393.486 306.26L402.917 285.395C402.746 298.241 403.389 311.036 402.726 323.917C402.953 323.837 403.012 323.197 403.171 322.918C406.459 314.023 409.458 305.144 412.526 296.254C413.178 311.583 413.831 326.902 414.484 342.231C416.895 335.167 419.308 328.115 421.72 321.052C423.267 335.104 424.817 349.145 426.364 363.197L435.535 335.618C433.929 351.434 432.321 367.242 430.715 383.058C435.663 369.693 441.813 356.283 444.314 342.986C446.229 333.349 445.381 323.81 440.59 314.813C452.213 322.978 458.293 332.415 462.569 341.979C463.82 344.697 464.851 347.438 465.841 350.19C463.96 338.188 460.866 326.191 451.627 315.193C450.834 314.172 449.85 313.184 449.016 312.171C456.826 317.511 462.956 323.281 468.312 329.183C461.851 318.041 452.702 307.308 440.565 297.27C440.992 297.2 441.795 297.666 442.323 297.797C451.348 301.241 458.728 305.273 466.55 309.138L413.143 273.476C426.165 279.396 439.193 285.312 452.217 291.232L407.397 260.451C416.581 264.025 425.769 267.605 434.954 271.179L419.62 260.107L420.174 250.262L421.184 250.402L420.183 250.197L422.004 217.89L422.047 217.951L426.56 255.44L427.224 213.607L433.617 262.919L439.114 221.405L438.834 269.814L449.071 216.183L449.89 252.039L455.716 216.368L460.873 265.046L464.161 216.387L467.631 256.432L470.244 217.355L476.65 266.667L478.139 218.158L482.158 257.42L485.98 218.242L491.153 256.67L494.946 216.758L499.967 263.266L502.1 215.425L508.193 248.644L508.664 214.156L524.836 244.323L515.146 211.419L546.737 247.631L521.023 208.717L571.579 238.971L530.54 206.465L585.697 232.663L540.717 204.879L600.788 232.866L547.101 200.691L610.99 232.016C574.397 204.776 537.013 187.533 498.201 183.658L484.996 139.42L501.305 167.089L490.625 135.118L515.226 155.201L495.705 129.514L536.445 147.82L500.25 124.245L556.516 128.026L508.295 117.641L567.476 115.519L517.136 111.356L581.423 108.536L521.669 104.451L590.553 102.884C529.014 91.7822 472.713 100.803 423.168 140.351L404.494 127.809L428.261 131.234L404.371 123.056L438.324 121.111L404.147 118.6L442.657 98.9707L405.326 112.135L445.926 81.1378L407.695 105.266L455.74 65.1646L407.639 99.0963L462.446 55.4002L460.192 55.8927C450.644 58.6462 442.217 65.1605 434.407 72.1531C425.293 80.4921 416.114 88.8139 406.211 95.735C399.291 100.846 392.386 106.463 387.448 114.41C381.343 124.111 377.627 135.567 373.333 146.506C371.703 150.788 370.015 155.039 368.341 159.302L364.689 163.792L385.026 100.93L371.557 134.191L387.826 74.7623L370.394 113.549L368.464 33.8764L363.092 150.436L352.9 75.6026L357.628 174.739L357.433 173.842C356.182 162.392 354.344 151.027 350.921 140.224C350.092 137.685 349.189 135.18 348.216 132.72L342.819 108.583L345.963 127.39C342.37 119.382 338.027 111.87 333.03 105.068C324.622 93.76 314.598 84.359 303.888 76.4947C295.475 70.2927 286.6 65.0187 277.419 60.721C265.72 55.1873 254.069 49.4748 242.563 43.3682C234.928 39.4384 227.287 35.5608 219.625 31.7104L219.613 31.7109ZM310.323 117.385L284.95 130.885C282.045 129.531 279.096 128.328 276.119 127.29C275.753 127.164 275.385 127.051 275.017 126.933L310.323 117.385L310.323 117.385ZM313.635 124.647L293.857 135.612C292.53 134.819 291.188 134.057 289.837 133.333L313.635 124.647L313.635 124.647ZM317.039 133.329L302.645 141.504C301.53 140.671 300.402 139.857 299.263 139.075L317.039 133.329L317.039 133.329ZM403.525 131.884L422.803 140.622C421.536 141.638 420.279 142.672 419.021 143.728L403.525 131.884L403.525 131.884ZM320.868 140.227L308.918 146.579C308.356 146.087 307.784 145.611 307.214 145.133L320.869 140.227L320.868 140.227ZM255.818 147.938C243.516 158.805 236.441 177.128 235.842 195.661C235.714 198.024 235.627 200.39 235.556 202.757C233.339 203.504 231.136 204.321 228.953 205.216C227.905 206.174 226.921 207.084 225.905 208.02C225.969 207.74 226.04 207.467 226.096 207.186C228.194 194.251 228.875 180.508 234.361 168.905C238.977 158.932 246.641 150.892 255.818 147.938L255.818 147.938ZM402.424 136.466L417.484 145.027C416.586 145.795 415.686 146.579 414.792 147.368L402.424 136.466L402.424 136.466ZM324.697 146.596L314.729 152.077C314.285 151.625 313.838 151.171 313.387 150.729L324.697 146.596L324.697 146.596ZM262.672 151.793C251.725 159.632 245.439 175.309 245.779 190.792C245.734 193.785 245.822 196.78 246.008 199.77C242.595 200.579 239.207 201.533 235.854 202.652C236.535 191.944 237.563 181.171 241.624 171.605C245.737 161.511 254.015 154.977 262.671 151.793L262.672 151.793ZM400.565 142.058L412.974 148.995C412.086 149.795 411.198 150.608 410.314 151.429L400.565 142.057L400.565 142.058ZM327.646 151.129L318.802 156.421C318.41 155.976 318.017 155.528 317.619 155.092L327.646 151.129ZM398.029 146.503L408.432 153.19C407.948 153.65 407.462 154.112 406.98 154.578L398.029 146.503L398.029 146.503ZM265.168 158.931C261.071 170.247 258.127 182.339 257.573 194.83C257.518 195.753 257.477 196.675 257.439 197.599C253.989 198.101 250.552 198.74 247.138 199.516C248.436 187.094 251.979 174.895 258.939 165.688C260.856 163.236 262.763 160.688 265.168 158.931L265.168 158.931ZM394.822 150.715L404.579 156.943C403.97 157.548 403.362 158.164 402.756 158.779L394.821 150.715L394.822 150.715ZM478.827 144.056L498.05 183.656C491.744 183.031 485.405 182.754 479.021 182.851L471.057 149.691L488.2 182.583L478.827 144.056L478.827 144.056ZM330.314 157.723L323.647 162.32C323.298 161.862 322.937 161.415 322.582 160.965L330.314 157.723L330.314 157.723ZM268.076 163.419L265.135 196.686C264.124 196.779 263.116 196.905 262.106 197.018L268.076 163.42L268.076 163.419ZM392.194 153.901L401.125 160.454C400.635 160.96 400.142 161.459 399.654 161.972L392.194 153.901L392.194 153.901ZM332.308 162.689L327.095 167.1C326.775 166.632 326.458 166.167 326.132 165.705L332.308 162.689L332.308 162.689ZM271.048 168.448L269.464 196.293C268.905 196.349 268.343 196.4 267.785 196.465L267.181 196.515L271.048 168.448L271.048 168.448ZM388.978 158.948L396.962 164.842C396.25 165.613 395.533 166.383 394.824 167.169L388.978 158.948L388.978 158.948ZM463.806 153.342L477.91 182.863C476.324 182.897 474.737 182.971 473.145 183.051L463.807 153.342L463.806 153.342ZM456.297 156.341L470.107 183.224C468.002 183.369 465.893 183.542 463.779 183.767L456.297 156.341L456.297 156.341ZM386.237 162.945L392.99 169.247C392.439 169.87 391.891 170.499 391.342 171.132L386.237 162.945L386.237 162.945ZM450.382 158.357L462.075 183.957C460.562 184.134 459.049 184.341 457.531 184.56L450.382 158.357L450.382 158.357ZM279.505 175.041L277.943 195.796C275.997 195.827 274.053 195.927 272.115 196.073C272.248 195.123 272.372 194.182 272.509 193.233C273.702 186.621 275.981 180.25 279.505 175.042L279.505 175.041ZM289.351 174.895C284.673 180.436 281.867 187.908 280.806 195.781C280.392 195.775 279.979 195.773 279.565 195.772C280.268 192.539 281.119 189.348 282.167 186.222C283.601 181.683 286.363 178.086 289.3 174.914L289.351 174.894L289.351 174.895ZM296.286 174.349L291.04 189.412C293.171 183.424 296.758 178.317 301.101 174.574C300.424 180.066 299.593 185.532 298.874 191.022L293.234 195.805L298.71 192.318C298.477 194.145 298.264 195.975 298.07 197.808C294.366 196.954 290.609 196.395 286.838 196.082C289.331 188.428 292.432 181.101 296.286 174.35L296.286 174.349ZM442.601 162.357L453.596 185.177C451.318 185.559 449.033 185.991 446.743 186.469L442.601 162.357L442.601 162.357ZM330.845 171.888L330.39 172.247L330.361 172.201L330.845 171.888L330.845 171.888ZM436.437 165.34L444.566 186.923C442.954 187.281 441.341 187.674 439.723 188.08L436.437 165.34L436.437 165.34ZM384.28 171.576L387.8 175.276C387.63 175.48 387.464 175.691 387.294 175.895L384.28 171.576L384.28 171.576ZM340.721 178.892L335.52 181.875C335.419 181.66 335.321 181.441 335.219 181.227L340.721 178.892L340.721 178.892ZM375.701 175.979L382.888 181.314C382.523 181.775 382.156 182.239 381.792 182.704L375.653 176.063L375.701 175.978L375.701 175.979ZM318.579 181.361L318.455 181.741L318.367 181.812C318.436 181.661 318.51 181.513 318.579 181.361ZM415.486 173.371L425.235 192.334C424.2 192.682 423.166 193.042 422.129 193.41L415.486 173.371L415.486 173.371ZM315.264 181.798L314.009 185.286L313.29 185.859L314.882 182.038L315.264 181.798L315.264 181.798ZM428.95 174.896L433.988 189.616C433.343 189.8 432.699 189.987 432.054 190.178L428.95 174.896L428.95 174.896ZM374.672 180.94L380.007 185.002C379.699 185.403 379.393 185.814 379.086 186.218L374.672 180.94L374.672 180.94ZM339.136 184.06L337.143 185.445C337.077 185.296 337.012 185.145 336.946 184.996L339.136 184.06L339.136 184.06ZM412.024 179.61L419.426 194.389C418.468 194.745 417.506 195.122 416.546 195.495L412.023 179.609L412.024 179.61ZM316.084 189.347L314.71 193.76L312.308 195.131C313.093 193.407 313.883 191.686 314.668 189.963L316.084 189.347L316.084 189.347ZM325.87 189.751C324.925 191.567 323.982 193.384 323.037 195.199L321.335 196.367C322.691 194.227 324.05 192.09 325.406 189.95L325.87 189.751L325.87 189.751ZM311.897 191.123L309.969 196.48L309.266 196.876L309.923 196.596L308.338 201.01C307.948 200.855 307.558 200.711 307.165 200.563L310.918 191.542L311.897 191.123L311.897 191.123ZM314.432 194.665L311.962 202.585C311.125 202.192 310.28 201.82 309.432 201.464C310.31 199.538 311.184 197.607 312.062 195.68L314.432 194.665L314.432 194.665ZM369.204 190.425L374.144 192.884L373.203 194.197L369.063 190.725L369.204 190.425ZM400.175 188.23L402.572 190.741L408.372 198.854C407.43 199.265 406.497 199.687 405.554 200.115L400.175 188.23L400.175 188.23ZM344.486 195.161L341.599 196.605C341.525 196.402 341.454 196.199 341.38 195.997L344.486 195.161L344.486 195.161ZM368.184 194.535L371.506 196.6C371.291 196.906 371.073 197.212 370.859 197.52L368.184 194.535L368.184 194.535ZM397.021 192.166L402.637 201.465C401.863 201.829 401.086 202.197 400.311 202.572L397.021 192.166L397.021 192.166ZM331.855 198.571L330.807 201.994L328.883 202.956L331.231 198.735L331.855 198.571L331.855 198.571ZM325.149 200.38L323.237 205.784C322.279 206.263 321.322 206.747 320.364 207.226C319.683 206.836 319.004 206.428 318.33 206.016L321.562 201.337L325.149 200.38L325.149 200.38ZM319.56 201.872C318.916 203.11 318.278 204.354 317.633 205.593L317.496 205.508C317.022 205.228 316.543 204.948 316.064 204.681C316.541 203.93 317.018 203.18 317.494 202.429L319.56 201.872L319.56 201.872ZM390.048 196.483L394.896 205.269C394.037 205.712 393.183 206.18 392.322 206.638L391.143 201.395L392.201 201.917L390.927 200.387L390.048 196.483L390.048 196.483ZM364.903 199.988L367.73 201.934L366.797 202.685L364.88 200.038L364.903 199.988ZM330.073 204.396L328.335 210.074L327.309 210.833C326.572 210.486 325.842 210.114 325.111 209.749L327.555 205.36L330.073 204.396L330.073 204.396ZM334.613 204.9C334.575 205.106 334.542 205.313 334.503 205.519L334.173 205.755L334.613 204.9L334.613 204.9ZM322.726 207.222L322.34 208.328C321.996 208.143 321.66 207.946 321.318 207.756L322.726 207.222L322.726 207.222ZM345.483 206.064L344.957 206.557C344.934 206.484 344.914 206.41 344.892 206.338L345.483 206.064ZM337.252 209.829C337.267 211.103 337.288 212.383 337.31 213.657L336.295 214.608L335.499 214.305C336.087 212.815 336.664 211.319 337.252 209.829L337.252 209.829ZM385.268 206.006L386.933 209.572C386.484 209.825 386.041 210.086 385.592 210.342L385.268 206.006L385.268 206.006ZM333.374 211.499L333.029 213.34C332.381 213.076 331.74 212.782 331.095 212.506L333.374 211.499L333.374 211.499ZM380.437 210.707L380.479 210.735L381.143 212.925L379.828 213.708L380.437 210.707L380.437 210.707ZM373.763 215.641L373.777 215.656L374.462 217.042C374.361 217.106 374.256 217.164 374.156 217.228L373.763 215.641L373.763 215.641ZM313.991 225.029L308.478 266.721L301.754 274.065L313.991 225.029L313.991 225.029ZM408.124 217.398L416.673 249.483L410.695 248.265L409.293 231.349L409.632 231.979L409.232 230.729L408.124 217.398L408.124 217.398ZM322.379 228.468L323.86 245.858C322.417 246.678 320.982 247.516 319.557 248.381L322.379 228.468L322.379 228.468ZM396.358 222.772L397.326 228.962L396.217 224.019L396.358 222.772L396.358 222.772ZM404.17 222.122L409.148 247.945L403.462 246.766L404.171 222.122L404.17 222.122ZM316.845 229.795L316.229 250.471C315.223 251.127 314.217 251.802 313.23 252.501L316.198 251.564L315.983 258.51L309.545 265.541L316.845 229.795L316.845 229.795ZM338.578 231.754L339.344 236.213L338.542 236.969L338.578 231.754L338.578 231.754ZM327.824 233.596L330.242 242.327L328.13 243.465L327.272 243.938L327.824 233.596L327.824 233.596ZM332.427 233.581L336.334 238.998C335.254 239.6 334.167 240.187 333.083 240.776L332.427 233.582L332.427 233.581ZM395.711 228.455L398.023 233.427L400.014 246.059L393.875 244.806L395.711 228.456L395.711 228.455ZM388.883 229.265L390.271 244.064L385.227 243.04L388.884 229.264L388.883 229.265ZM382.965 231.217L382.477 242.468L376.779 241.307L382.965 231.217L382.965 231.217ZM375.207 232.601L376.231 241.192L374.469 240.825L375.207 232.601ZM339.497 237.098L339.503 237.194C339.179 237.382 338.858 237.586 338.533 237.772L338.534 237.323L339.497 237.098ZM367.599 236.891L368.557 239.618L367.182 239.331L367.599 236.891L367.599 236.891ZM361.445 245.454L365.345 250.278L365.63 248.554C368.136 250.934 370.162 253.401 371.212 256.06C371.484 256.648 371.754 257.232 372.023 257.82C371.425 257.284 370.827 256.762 370.22 256.254C367.404 253.809 364.455 251.532 361.623 249.08C361.564 247.872 361.503 246.662 361.446 245.454L361.445 245.454ZM324.129 249.059L324.17 249.553L318.504 255.75L319.23 250.606L324.129 249.059L324.129 249.059ZM403.43 247.908L409.307 248.734L410.185 253.311L403.406 248.423L403.43 247.908L403.43 247.908ZM410.758 248.95L416.754 249.781L419.468 260.012C416.704 258.017 413.94 256.026 411.176 254.031L410.758 248.95V248.95ZM317.59 264.118L317.236 264.629L317.284 264.32L317.59 264.118ZM366.878 265.803C370.325 266.295 373.632 267.538 376.885 268.963C378.614 273.186 380.192 277.44 381.561 281.708C381.014 280.9 380.463 280.101 379.895 279.313C376.847 275.179 373.352 271.58 369.647 268.347L366.879 265.803L366.878 265.803ZM402.051 324.361C402.054 324.368 402.052 324.389 402.079 324.406C402.115 324.385 402.076 324.366 402.051 324.361Z" fill="#447821" stroke="black" stroke-width="0.545781"/>
<path d="M2529.64 209.537C2529.64 209.537 2523.42 240.075 2524.1 255.574C2524.91 274.206 2528.68 293.086 2535.54 310.228C2544.68 333.104 2559.4 353.067 2574.18 372.09C2592.45 395.614 2635.43 435.933 2635.43 435.933C2671.95 472.017 2798.26 552.965 2772.2 575.371L2839.85 582.201C2805.22 541.996 2766.63 509.91 2724.75 480.209C2724.75 480.209 2686.51 453.403 2668.07 438.895C2646.16 421.651 2623.94 404.609 2604.04 384.604C2586.83 367.313 2569.27 349.63 2556.55 328.154C2547.19 312.336 2540.63 294.397 2536.17 276.218C2533.38 264.872 2531.96 252.974 2532.35 241.275C2532.71 230.567 2537.97 209.801 2537.97 209.801L2529.64 209.537Z" fill="#552200" stroke="black" stroke-width="0.334007"/>
<path d="M2650.22 31.7106C2636.49 41.6092 2622.61 51.3687 2607.74 58.5325C2600.81 61.9571 2593.67 64.7463 2586.62 67.7587C2599.71 63.4854 2612.78 58.7623 2625.12 51.8647C2632.16 48.0176 2639.15 44.0128 2646.16 40.0964L2583.03 75.8477L2637.22 52.6153L2574.68 86.0412L2632.77 68.5069L2567.78 96.3398L2626.51 96.3074L2565.3 103.206L2611.6 113.172L2562.89 110.607L2597.13 126.225C2614.67 121.438 2633.88 125.677 2647.89 139.208C2654.04 145.04 2658.74 152.732 2662.89 160.713C2665.87 166.103 2668.73 171.794 2672.81 176.037C2677.33 179.712 2683.78 178.869 2687.92 174.473C2688.52 174.088 2687.94 174.753 2687.85 174.964C2684.11 180.939 2678.19 185.858 2671.86 185.067C2666.23 183.524 2662.7 177.227 2660.55 171.119C2656.77 160.888 2652.4 150.502 2645.19 143.281C2653.46 154.432 2657.42 169.018 2661.86 182.823C2663.53 188.462 2667.02 194.139 2672.2 194.975C2675.59 195.459 2678.99 194.283 2682.14 192.771C2676.74 199.287 2667.29 200.896 2661.39 194.924C2657.92 190.307 2656.44 184.08 2654.63 178.324C2651.76 168.025 2648.4 157.57 2642.2 149.592C2640.41 147.233 2638.4 145.098 2636.19 143.334C2644.52 153.024 2648.69 166.723 2651.17 180.249C2652.81 188.818 2654.1 198.225 2659.33 204.696C2662.93 208.875 2667.98 210.589 2672.87 210.971C2663.63 213.942 2653.73 206.656 2650.56 196.042C2648.02 187.533 2647.48 178.242 2644.43 169.936C2640.39 158.207 2633.22 147.68 2623.5 142.629C2630.18 148.443 2636.05 156.008 2639.23 165.397C2643.64 177.39 2644.49 190.723 2646.04 203.637C2646.43 206.317 2647.01 209.05 2647.83 211.644C2675.39 237.477 2689.75 257.044 2690.66 315.557L2682.61 280.133C2684.51 302.122 2681.1 312.255 2683 334.246C2677.47 310.798 2677.24 299.195 2671.71 275.746C2671.18 298.907 2664.55 309.118 2664.02 332.281C2661.06 307.373 2662.89 288.063 2659.93 263.156C2654.57 282.965 2652.23 294.718 2646.86 314.528C2649.77 293.983 2649.23 274.2 2652.14 253.655C2644.71 267.59 2639.01 296.174 2631.57 310.108C2636.49 295.149 2639.24 258.246 2644.16 243.286C2636.3 256.05 2630.61 290.771 2622.75 303.538C2623.58 301.161 2624.4 298.761 2625.2 296.365L2618.13 315.037C2623.28 295.802 2630.45 255.987 2635.6 236.751C2629.02 252.212 2620.42 288.244 2613.85 303.708C2617.3 287.123 2621.7 254.021 2625.15 237.436C2620.25 253.119 2614.42 285.321 2609.51 301.007C2612.03 287.924 2615.99 255.147 2617.31 241.807C2614.4 257.834 2609.54 293.404 2606.64 309.431C2607.32 288.817 2613.07 254.104 2613.75 233.494C2611.61 249.441 2604.41 279.49 2602.27 295.436C2602.4 278.481 2603.79 254.361 2603.93 237.408C2602.49 256.734 2599.8 283.228 2598.37 302.553L2594.55 242.318L2591.91 284.774L2588.37 239.815L2584.41 299.017L2580.02 242.794L2580.97 289.607L2570.02 226.453L2575.17 278.413L2566.09 230.089L2569.67 280.472L2568.11 274.232L2561.81 270.228L2562.88 278.287L2561.14 269.803L2554.03 265.266L2554.08 266.809L2576.01 298.53L2557.59 277.317C2562.62 287.321 2567.37 297.722 2569.98 309.077C2571.92 323.521 2576.72 337.064 2579.67 351.197C2580.25 353.865 2580.78 356.544 2581.32 359.225L2569.85 329.963L2581.13 384.851C2577.47 367.969 2571.64 351.967 2566.05 335.932C2566.45 346.129 2567.85 356.23 2568.16 366.434C2569.08 385.985 2568.3 405.592 2566.67 425.056C2566.48 406.805 2565.52 388.564 2563.57 370.46C2563.38 368.74 2563.21 367.023 2563.04 365.3C2562.85 376.605 2562.75 387.907 2562.15 399.194C2560.74 381.651 2558.53 364.226 2556.63 346.757C2556.42 344.973 2556.25 343.19 2556.06 341.401C2555.3 351.298 2554.5 361.183 2553.3 371.017L2557 302.972L2547.56 342.76L2552.87 290.404C2550.48 298.711 2548.33 307.111 2545.91 315.404C2546.42 302.942 2546.95 290.43 2546.09 277.972C2545.79 277.207 2545.29 276.597 2544.82 275.989C2543.24 280.026 2542 284.242 2540.53 288.334C2538.38 280.708 2535.59 273.399 2532.44 266.315C2530.03 264.29 2527.62 262.272 2525.17 260.32C2523.6 269.494 2523.35 279.234 2525.78 288.228C2526.22 288.701 2525.19 288.848 2525.41 288.229C2522.72 282.983 2520.96 277.064 2520.06 270.992C2514.78 285.634 2512.5 301.469 2509.45 316.923C2507.68 326.346 2505.22 335.544 2502.74 344.718C2501.71 349.118 2501.04 353.655 2500.88 358.228C2500.21 355.281 2499.84 352.254 2499.45 349.24C2498.06 359.272 2499.24 369.454 2500.23 379.455C2500.32 380.324 2500.46 381.191 2500.45 382.072C2496.44 373.572 2492 365.1 2490.18 355.428C2488.59 346.693 2489.34 337.665 2490.34 328.899C2490.06 328.512 2489.82 329.465 2489.56 329.636C2483.64 338.249 2479.92 349.322 2480.07 360.633C2480.15 372.713 2483.13 384.35 2484.56 396.225C2485.17 401.151 2485.24 406.228 2484.29 411.101C2482.95 418.458 2479.72 425.377 2474.93 430.208C2474.89 430.975 2473.66 430.442 2474.24 429.895C2479.12 421.901 2480.92 411.488 2479.84 401.701C2479.04 395.111 2477.45 388.713 2476.34 382.196C2474.79 374.124 2473.39 365.972 2472.96 357.682C2471.83 369.34 2473.14 381.058 2473.95 392.679C2474.24 396.409 2474.38 400.154 2474.27 403.899C2471.93 390.402 2469.15 376.909 2468.68 363.067C2468.23 351.075 2470.19 338.786 2475.11 328.304C2480.68 315.997 2487.67 304.765 2494.75 293.711C2485.8 303.919 2476.84 314.117 2467.85 324.283C2478.21 311.418 2487.35 297.222 2496.57 283.166C2498.27 280.827 2500.09 278.62 2502.06 276.63C2493.22 281.852 2485.89 289.98 2478.64 297.886C2481.49 292.714 2484.38 287.545 2487.59 282.691C2484.5 278.887 2481.5 275.077 2478.5 271.268C2475.01 277.693 2478.15 284.756 2476.92 291.408C2476.8 296.364 2476.61 301.317 2476.34 306.259L2466.91 285.395C2467.08 298.241 2466.44 311.036 2467.1 323.917C2466.88 323.837 2466.82 323.196 2466.66 322.917C2463.37 314.023 2460.37 305.144 2457.3 296.253C2456.65 311.582 2456 326.901 2455.35 342.23C2452.93 335.167 2450.52 328.115 2448.11 321.051C2446.56 335.103 2445.01 349.144 2443.47 363.196L2434.29 335.618C2435.9 351.433 2437.51 367.242 2439.11 383.057C2434.17 369.692 2428.02 356.282 2425.51 342.985C2423.6 333.349 2424.45 323.81 2429.24 314.813C2417.62 322.978 2411.54 332.414 2407.26 341.978C2406.01 344.696 2404.98 347.437 2403.99 350.19C2405.87 338.188 2408.96 326.191 2418.2 315.193C2419 314.172 2419.98 313.184 2420.81 312.17C2413 317.51 2406.87 323.281 2401.52 329.183C2407.98 318.041 2417.13 307.307 2429.26 297.269C2428.84 297.2 2428.03 297.665 2427.51 297.797C2418.48 301.241 2411.1 305.273 2403.28 309.138L2456.69 273.476C2443.66 279.396 2430.64 285.311 2417.61 291.231L2462.43 260.451C2453.25 264.025 2444.06 267.604 2434.88 271.179L2450.21 260.107L2449.66 250.262L2448.65 250.402L2449.65 250.197L2447.83 217.89L2447.78 217.951L2443.27 255.439L2442.61 213.606L2436.21 262.919L2430.71 221.405L2431 269.813L2420.76 216.183L2419.94 252.039L2414.11 216.367L2408.96 265.045L2405.67 216.386L2402.2 256.432L2399.59 217.355L2393.18 266.666L2391.69 218.157L2387.67 257.419L2383.85 218.242L2378.68 256.67L2374.88 216.758L2369.86 263.266L2367.73 215.424L2361.64 248.644L2361.16 214.156L2344.99 244.323L2354.68 211.419L2323.09 247.631L2348.81 208.716L2298.25 238.971L2339.29 206.464L2284.13 232.663L2329.11 204.879L2269.04 232.865L2322.73 200.691L2258.84 232.016C2295.43 204.776 2332.82 187.533 2371.63 183.658L2384.83 139.419L2368.52 167.089L2379.2 135.117L2354.6 155.2L2374.12 129.514L2333.38 147.82L2369.58 124.244L2313.31 128.026L2361.53 117.641L2302.35 115.519L2352.69 111.355L2288.41 108.536L2348.16 104.451L2279.28 102.884C2340.82 91.7819 2397.12 100.803 2446.66 140.351L2465.34 127.809L2441.57 131.234L2465.46 123.056L2431.5 121.111L2465.68 118.6L2427.17 98.9705L2464.5 112.135L2423.9 81.1375L2462.13 105.266L2414.09 65.1643L2462.19 99.096L2407.38 55.4L2409.64 55.8924C2419.19 58.6459 2427.61 65.1602 2435.42 72.1529C2444.54 80.4918 2453.71 88.8136 2463.62 95.7348C2470.54 100.845 2477.44 106.462 2482.38 114.41C2488.49 124.111 2492.2 135.567 2496.5 146.505C2498.13 150.788 2499.81 155.039 2501.49 159.302L2505.14 163.792L2484.8 100.93L2498.27 134.191L2482 74.762L2499.44 113.549L2501.37 33.8761L2506.74 150.436L2516.93 75.6024L2512.2 174.739L2512.4 173.841C2513.65 162.392 2515.49 151.027 2518.91 140.224C2519.74 137.685 2520.64 135.18 2521.61 132.719L2527.01 108.583L2523.87 127.39C2527.46 119.382 2531.8 111.87 2536.8 105.068C2545.21 93.7597 2555.23 84.3587 2565.94 76.4944C2574.35 70.2925 2583.23 65.0184 2592.41 60.7207C2604.11 55.1871 2615.76 49.4745 2627.27 43.3679C2634.9 39.4382 2642.54 35.5606 2650.2 31.7102L2650.22 31.7106ZM2559.51 117.385L2584.88 130.885C2587.78 129.53 2590.73 128.328 2593.71 127.29C2594.08 127.164 2594.44 127.051 2594.81 126.933L2559.51 117.385L2559.51 117.385ZM2556.19 124.647L2575.97 135.612C2577.3 134.819 2578.64 134.057 2579.99 133.332L2556.19 124.647L2556.19 124.647ZM2552.79 133.328L2567.18 141.504C2568.3 140.67 2569.43 139.857 2570.57 139.075L2552.79 133.329L2552.79 133.328ZM2466.3 131.884L2447.03 140.622C2448.29 141.638 2449.55 142.672 2450.81 143.728L2466.3 131.883L2466.3 131.884ZM2548.96 140.227L2560.91 146.579C2561.47 146.087 2562.05 145.611 2562.62 145.133L2548.96 140.227L2548.96 140.227ZM2614.01 147.937C2626.31 158.805 2633.39 177.128 2633.99 195.661C2634.12 198.024 2634.2 200.39 2634.27 202.757C2636.49 203.504 2638.69 204.321 2640.88 205.215C2641.92 206.174 2642.91 207.084 2643.92 208.019C2643.86 207.74 2643.79 207.467 2643.73 207.186C2641.63 194.25 2640.95 180.508 2635.47 168.905C2630.85 158.931 2623.19 150.891 2614.01 147.937L2614.01 147.937ZM2467.41 136.466L2452.35 145.027C2453.24 145.794 2454.14 146.579 2455.04 147.368L2467.41 136.466L2467.41 136.466ZM2545.13 146.595L2555.1 152.076C2555.54 151.625 2555.99 151.171 2556.44 150.729L2545.13 146.595L2545.13 146.595ZM2607.16 151.793C2618.1 159.631 2624.39 175.309 2624.05 190.792C2624.1 193.785 2624.01 196.78 2623.82 199.77C2627.23 200.579 2630.62 201.533 2633.98 202.652C2633.29 191.944 2632.27 181.17 2628.21 171.604C2624.09 161.51 2615.81 154.977 2607.16 151.793L2607.16 151.793ZM2469.26 142.057L2456.86 148.994C2457.74 149.795 2458.63 150.608 2459.51 151.429L2469.26 142.057L2469.26 142.057ZM2542.18 151.129L2551.03 156.42C2551.42 155.976 2551.81 155.528 2552.21 155.091L2542.18 151.129ZM2471.8 146.502L2461.4 153.19C2461.88 153.65 2462.37 154.112 2462.85 154.578L2471.8 146.502L2471.8 146.502ZM2604.66 158.93C2608.76 170.247 2611.7 182.339 2612.26 194.829C2612.31 195.753 2612.35 196.674 2612.39 197.599C2615.84 198.101 2619.28 198.74 2622.69 199.515C2621.39 187.094 2617.85 174.895 2610.89 165.688C2608.97 163.235 2607.07 160.688 2604.66 158.93L2604.66 158.93ZM2475.01 150.715L2465.25 156.943C2465.86 157.547 2466.47 158.164 2467.07 158.779L2475.01 150.715L2475.01 150.715ZM2391 144.056L2371.78 183.655C2378.09 183.031 2384.42 182.754 2390.81 182.85L2398.77 149.69L2381.63 182.583L2391 144.056L2391 144.056ZM2539.51 157.723L2546.18 162.319C2546.53 161.862 2546.89 161.415 2547.25 160.965L2539.51 157.723L2539.51 157.723ZM2601.75 163.419L2604.69 196.685C2605.71 196.778 2606.71 196.905 2607.72 197.018L2601.75 163.419L2601.75 163.419ZM2477.64 153.901L2468.7 160.454C2469.19 160.96 2469.69 161.459 2470.18 161.972L2477.64 153.9L2477.64 153.901ZM2537.52 162.689L2542.73 167.1C2543.05 166.632 2543.37 166.167 2543.7 165.705L2537.52 162.689L2537.52 162.689ZM2598.78 168.448L2600.36 196.293C2600.92 196.349 2601.49 196.4 2602.04 196.465L2602.65 196.515L2598.78 168.448L2598.78 168.448ZM2480.85 158.947L2472.87 164.842C2473.58 165.613 2474.3 166.383 2475.01 167.169L2480.85 158.947L2480.85 158.947ZM2406.02 153.341L2391.92 182.862C2393.51 182.897 2395.09 182.971 2396.68 183.051L2406.02 153.341L2406.02 153.341ZM2413.53 156.34L2399.72 183.224C2401.83 183.368 2403.94 183.542 2406.05 183.767L2413.53 156.34L2413.53 156.34ZM2483.59 162.945L2476.84 169.246C2477.39 169.87 2477.94 170.499 2478.49 171.132L2483.59 162.945L2483.59 162.945ZM2419.45 158.356L2407.75 183.957C2409.27 184.134 2410.78 184.341 2412.3 184.56L2419.45 158.356L2419.45 158.356ZM2590.32 175.041L2591.89 195.795C2593.83 195.827 2595.78 195.927 2597.71 196.072C2597.58 195.123 2597.46 194.181 2597.32 193.233C2596.13 186.62 2593.85 180.25 2590.32 175.041L2590.32 175.041ZM2580.48 174.894C2585.16 180.436 2587.96 187.908 2589.02 195.781C2589.44 195.775 2589.85 195.773 2590.26 195.772C2589.56 192.538 2588.71 189.348 2587.66 186.221C2586.23 181.683 2583.47 178.086 2580.53 174.914L2580.48 174.894L2580.48 174.894ZM2573.54 174.349L2578.79 189.412C2576.66 183.424 2573.07 178.317 2568.73 174.574C2569.41 180.066 2570.24 185.532 2570.95 191.021L2576.6 195.805L2571.12 192.318C2571.35 194.145 2571.57 195.975 2571.76 197.808C2575.46 196.954 2579.22 196.395 2582.99 196.081C2580.5 188.428 2577.4 181.101 2573.54 174.35L2573.54 174.349ZM2427.23 162.356L2416.23 185.176C2418.51 185.559 2420.8 185.991 2423.09 186.469L2427.23 162.356L2427.23 162.356ZM2538.98 171.888L2539.44 172.246L2539.47 172.201L2538.98 171.888L2538.98 171.888ZM2433.39 165.339L2425.26 186.923C2426.88 187.28 2428.49 187.674 2430.11 188.08L2433.39 165.339L2433.39 165.339ZM2485.55 171.575L2482.03 175.276C2482.2 175.48 2482.36 175.69 2482.53 175.895L2485.55 171.575L2485.55 171.575ZM2529.11 178.892L2534.31 181.875C2534.41 181.66 2534.51 181.441 2534.61 181.226L2529.11 178.892L2529.11 178.892ZM2494.13 175.979L2486.94 181.314C2487.31 181.775 2487.67 182.239 2488.04 182.704L2494.18 176.062L2494.13 175.978L2494.13 175.979ZM2551.25 181.361L2551.37 181.74L2551.46 181.812C2551.39 181.66 2551.32 181.513 2551.25 181.361ZM2454.34 173.371L2444.59 192.333C2445.63 192.682 2446.66 193.041 2447.7 193.41L2454.34 173.371L2454.34 173.371ZM2554.57 181.798L2555.82 185.286L2556.54 185.859L2554.95 182.038L2554.57 181.798L2554.57 181.798ZM2440.88 174.896L2435.84 189.616C2436.49 189.799 2437.13 189.987 2437.78 190.178L2440.88 174.896L2440.88 174.896ZM2495.16 180.94L2489.82 185.002C2490.13 185.403 2490.44 185.813 2490.74 186.217L2495.16 180.94L2495.16 180.94ZM2530.69 184.06L2532.69 185.444C2532.75 185.295 2532.82 185.145 2532.88 184.996L2530.69 184.059L2530.69 184.06ZM2457.81 179.609L2450.4 194.389C2451.36 194.745 2452.32 195.122 2453.28 195.495L2457.81 179.609L2457.81 179.609ZM2553.74 189.347L2555.12 193.76L2557.52 195.13C2556.74 193.407 2555.95 191.686 2555.16 189.962L2553.74 189.347L2553.74 189.347ZM2543.96 189.751C2544.9 191.566 2545.85 193.384 2546.79 195.199L2548.49 196.367C2547.14 194.227 2545.78 192.09 2544.42 189.95L2543.96 189.751L2543.96 189.751ZM2557.93 191.123L2559.86 196.48L2560.56 196.875L2559.91 196.596L2561.49 201.01C2561.88 200.854 2562.27 200.71 2562.66 200.562L2558.91 191.541L2557.93 191.123L2557.93 191.123ZM2555.4 194.665L2557.87 202.584C2558.7 202.192 2559.55 201.819 2560.4 201.464C2559.52 199.537 2558.65 197.607 2557.77 195.68L2555.4 194.665L2555.4 194.665ZM2500.63 190.424L2495.68 192.884L2496.63 194.197L2500.77 190.725L2500.63 190.424ZM2469.65 188.23L2467.26 190.741L2461.46 198.854C2462.4 199.265 2463.33 199.687 2464.28 200.115L2469.65 188.23L2469.65 188.23ZM2525.34 195.161L2528.23 196.604C2528.3 196.402 2528.38 196.199 2528.45 195.997L2525.34 195.161L2525.34 195.161ZM2501.65 194.535L2498.32 196.599C2498.54 196.906 2498.76 197.211 2498.97 197.519L2501.65 194.535L2501.65 194.535ZM2472.81 192.165L2467.19 201.464C2467.97 201.828 2468.74 202.197 2469.52 202.572L2472.81 192.165L2472.81 192.165ZM2537.97 198.57L2539.02 201.993L2540.95 202.956L2538.6 198.735L2537.97 198.57L2537.97 198.57ZM2544.68 200.38L2546.59 205.783C2547.55 206.263 2548.51 206.746 2549.47 207.226C2550.15 206.835 2550.83 206.427 2551.5 206.016L2548.27 201.336L2544.68 200.38L2544.68 200.38ZM2550.27 201.872C2550.91 203.11 2551.55 204.354 2552.2 205.592L2552.33 205.508C2552.81 205.228 2553.29 204.947 2553.76 204.681C2553.29 203.929 2552.81 203.18 2552.33 202.429L2550.27 201.872L2550.27 201.872ZM2479.78 196.483L2474.93 205.268C2475.79 205.712 2476.65 206.18 2477.51 206.637L2478.69 201.395L2477.63 201.916L2478.9 200.387L2479.78 196.483L2479.78 196.483ZM2504.93 199.988L2502.1 201.934L2503.03 202.685L2504.95 200.038L2504.93 199.988ZM2539.76 204.396L2541.49 210.074L2542.52 210.833C2543.26 210.486 2543.99 210.114 2544.72 209.749L2542.27 205.359L2539.76 204.396L2539.76 204.396ZM2535.22 204.9C2535.25 205.106 2535.29 205.313 2535.33 205.519L2535.66 205.755L2535.22 204.9L2535.22 204.9ZM2547.1 207.221L2547.49 208.328C2547.83 208.142 2548.17 207.946 2548.51 207.756L2547.1 207.221L2547.1 207.221ZM2524.35 206.064L2524.87 206.557C2524.9 206.484 2524.91 206.41 2524.94 206.338L2524.35 206.064ZM2532.58 209.828C2532.56 211.103 2532.54 212.382 2532.52 213.657L2533.53 214.607L2534.33 214.305C2533.74 212.815 2533.16 211.318 2532.58 209.828L2532.58 209.828ZM2484.56 206.006L2482.9 209.572C2483.34 209.825 2483.79 210.085 2484.24 210.341L2484.56 206.006L2484.56 206.006ZM2536.46 211.499L2536.8 213.339C2537.45 213.075 2538.09 212.781 2538.73 212.506L2536.46 211.499L2536.46 211.499ZM2489.39 210.706L2489.35 210.735L2488.69 212.925L2490 213.708L2489.39 210.706L2489.39 210.706ZM2496.07 215.641L2496.05 215.655L2495.37 217.042C2495.47 217.106 2495.57 217.164 2495.67 217.228L2496.07 215.641L2496.07 215.641ZM2555.84 225.029L2561.35 266.721L2568.07 274.064L2555.84 225.029L2555.84 225.029ZM2461.71 217.398L2453.16 249.483L2459.13 248.264L2460.54 231.349L2460.2 231.978L2460.6 230.729L2461.7 217.398L2461.71 217.398ZM2547.45 228.468L2545.97 245.857C2547.41 246.678 2548.85 247.516 2550.27 248.381L2547.45 228.468L2547.45 228.468ZM2473.47 222.772L2472.5 228.962L2473.61 224.019L2473.47 222.772L2473.47 222.772ZM2465.66 222.121L2460.68 247.944L2466.37 246.766L2465.66 222.121L2465.66 222.121ZM2552.98 229.795L2553.6 250.471C2554.61 251.127 2555.61 251.802 2556.6 252.501L2553.63 251.564L2553.85 258.51L2560.28 265.541L2552.98 229.795L2552.98 229.795ZM2531.25 231.754L2530.49 236.212L2531.29 236.969L2531.25 231.754L2531.25 231.754ZM2542.01 233.595L2539.59 242.327L2541.7 243.465L2542.56 243.937L2542.01 233.596L2542.01 233.595ZM2537.4 233.581L2533.5 238.997C2534.58 239.599 2535.66 240.187 2536.75 240.776L2537.4 233.581L2537.4 233.581ZM2474.12 228.455L2471.81 233.426L2469.82 246.059L2475.95 244.806L2474.12 228.455L2474.12 228.455ZM2480.95 229.264L2479.56 244.063L2484.6 243.04L2480.95 229.264L2480.95 229.264ZM2486.86 231.217L2487.35 242.468L2493.05 241.306L2486.86 231.217L2486.86 231.217ZM2494.62 232.6L2493.6 241.191L2495.36 240.825L2494.62 232.6ZM2530.33 237.098L2530.33 237.194C2530.65 237.382 2530.97 237.585 2531.3 237.772L2531.3 237.322L2530.33 237.098ZM2502.23 236.891L2501.27 239.617L2502.65 239.331L2502.23 236.891L2502.23 236.891ZM2508.38 245.454L2504.48 250.277L2504.2 248.554C2501.69 250.933 2499.67 253.401 2498.62 256.059C2498.35 256.647 2498.08 257.232 2497.81 257.82C2498.4 257.283 2499 256.762 2499.61 256.254C2502.42 253.809 2505.37 251.532 2508.21 249.08C2508.27 247.872 2508.33 246.662 2508.38 245.454L2508.38 245.454ZM2545.7 249.059L2545.66 249.553L2551.33 255.75L2550.6 250.606L2545.7 249.059L2545.7 249.059ZM2466.4 247.908L2460.52 248.733L2459.64 253.311L2466.42 248.423L2466.4 247.908L2466.4 247.908ZM2459.07 248.949L2453.07 249.781L2450.36 260.012C2453.13 258.017 2455.89 256.025 2458.65 254.03L2459.07 248.949V248.949ZM2552.24 264.118L2552.59 264.628L2552.54 264.32L2552.24 264.118ZM2502.95 265.803C2499.5 266.295 2496.2 267.538 2492.94 268.963C2491.22 273.185 2489.64 277.439 2488.27 281.708C2488.82 280.9 2489.37 280.101 2489.93 279.313C2492.98 275.179 2496.48 271.579 2500.18 268.347L2502.95 265.803L2502.95 265.803ZM2467.78 324.36C2467.77 324.368 2467.78 324.388 2467.75 324.406C2467.71 324.384 2467.75 324.365 2467.78 324.36Z" fill="#447821" stroke="black" stroke-width="0.545781"/>
<g filter="url(#filter0_d_903_44)">
<path d="M776.761 336.359H790.457L825.394 423.298L860.257 336.359H874.026L830.667 443H819.974L776.761 336.359ZM772.293 336.359H784.378L786.355 401.398V443H772.293V336.359ZM866.336 336.359H878.421V443H864.358V401.398L866.336 336.359ZM915.921 363.752V443H902.298V363.752H915.921ZM901.272 342.731C901.272 340.534 901.932 338.679 903.25 337.165C904.617 335.651 906.619 334.895 909.256 334.895C911.844 334.895 913.821 335.651 915.188 337.165C916.604 338.679 917.312 340.534 917.312 342.731C917.312 344.831 916.604 346.638 915.188 348.151C913.821 349.616 911.844 350.349 909.256 350.349C906.619 350.349 904.617 349.616 903.25 348.151C901.932 346.638 901.272 344.831 901.272 342.731ZM983.816 421.979C983.816 420.026 983.377 418.22 982.498 416.56C981.668 414.851 979.935 413.312 977.298 411.945C974.71 410.529 970.804 409.309 965.579 408.283C961.185 407.355 957.205 406.257 953.641 404.987C950.125 403.718 947.122 402.18 944.632 400.373C942.19 398.566 940.311 396.442 938.992 394.001C937.674 391.56 937.015 388.703 937.015 385.432C937.015 382.307 937.698 379.353 939.065 376.569C940.481 373.786 942.459 371.32 944.998 369.172C947.586 367.023 950.687 365.339 954.3 364.118C957.913 362.897 961.941 362.287 966.385 362.287C972.732 362.287 978.152 363.41 982.645 365.656C987.137 367.902 990.579 370.905 992.972 374.665C995.364 378.376 996.561 382.502 996.561 387.043H983.011C983.011 384.846 982.352 382.722 981.033 380.671C979.764 378.571 977.884 376.838 975.394 375.471C972.952 374.104 969.949 373.42 966.385 373.42C962.625 373.42 959.573 374.006 957.229 375.178C954.935 376.301 953.25 377.741 952.176 379.499C951.15 381.257 950.638 383.112 950.638 385.065C950.638 386.53 950.882 387.849 951.37 389.021C951.907 390.144 952.835 391.193 954.153 392.17C955.472 393.098 957.327 393.977 959.72 394.807C962.112 395.637 965.164 396.467 968.875 397.297C975.369 398.762 980.716 400.52 984.915 402.57C989.114 404.621 992.239 407.136 994.29 410.114C996.341 413.093 997.366 416.706 997.366 420.954C997.366 424.421 996.634 427.595 995.169 430.476C993.753 433.356 991.678 435.847 988.943 437.946C986.258 439.997 983.035 441.608 979.275 442.78C975.564 443.903 971.39 444.465 966.751 444.465C959.769 444.465 953.86 443.22 949.026 440.729C944.192 438.239 940.53 435.017 938.04 431.062C935.55 427.106 934.305 422.932 934.305 418.537H947.928C948.123 422.248 949.197 425.202 951.15 427.399C953.104 429.548 955.496 431.086 958.328 432.014C961.16 432.893 963.968 433.332 966.751 433.332C970.462 433.332 973.562 432.844 976.053 431.867C978.592 430.891 980.521 429.548 981.839 427.839C983.157 426.13 983.816 424.177 983.816 421.979ZM1046.88 433.332C1050.1 433.332 1053.08 432.673 1055.81 431.354C1058.55 430.036 1060.79 428.229 1062.55 425.935C1064.31 423.591 1065.31 420.93 1065.55 417.951H1078.45C1078.2 422.639 1076.61 427.009 1073.68 431.062C1070.8 435.065 1067.02 438.312 1062.33 440.803C1057.64 443.244 1052.49 444.465 1046.88 444.465C1040.92 444.465 1035.72 443.415 1031.28 441.315C1026.88 439.216 1023.22 436.335 1020.29 432.673C1017.41 429.011 1015.24 424.812 1013.77 420.075C1012.36 415.29 1011.65 410.236 1011.65 404.914V401.838C1011.65 396.516 1012.36 391.486 1013.77 386.75C1015.24 381.965 1017.41 377.741 1020.29 374.079C1023.22 370.417 1026.88 367.536 1031.28 365.437C1035.72 363.337 1040.92 362.287 1046.88 362.287C1053.08 362.287 1058.5 363.557 1063.14 366.096C1067.78 368.586 1071.41 372.004 1074.05 376.35C1076.74 380.646 1078.2 385.529 1078.45 390.998H1065.55C1065.31 387.727 1064.38 384.772 1062.77 382.136C1061.21 379.499 1059.06 377.399 1056.33 375.837C1053.64 374.226 1050.49 373.42 1046.88 373.42C1042.73 373.42 1039.24 374.25 1036.4 375.91C1033.62 377.521 1031.4 379.719 1029.74 382.502C1028.13 385.236 1026.96 388.288 1026.22 391.657C1025.54 394.978 1025.2 398.371 1025.2 401.838V404.914C1025.2 408.381 1025.54 411.799 1026.22 415.168C1026.91 418.537 1028.05 421.589 1029.67 424.323C1031.33 427.058 1033.55 429.255 1036.33 430.915C1039.16 432.526 1042.68 433.332 1046.88 433.332ZM1126.57 444.465C1121.05 444.465 1116.04 443.537 1111.55 441.682C1107.11 439.777 1103.27 437.116 1100.05 433.698C1096.88 430.28 1094.44 426.228 1092.73 421.54C1091.02 416.853 1090.16 411.726 1090.16 406.159V403.083C1090.16 396.638 1091.12 390.9 1093.02 385.871C1094.92 380.793 1097.51 376.496 1100.78 372.98C1104.06 369.465 1107.77 366.804 1111.92 364.997C1116.07 363.19 1120.36 362.287 1124.81 362.287C1130.47 362.287 1135.35 363.264 1139.46 365.217C1143.61 367.17 1147 369.904 1149.64 373.42C1152.27 376.887 1154.23 380.988 1155.5 385.725C1156.77 390.412 1157.4 395.539 1157.4 401.105V407.185H1098.22V396.125H1143.85V395.1C1143.66 391.584 1142.92 388.166 1141.65 384.846C1140.43 381.525 1138.48 378.791 1135.79 376.643C1133.11 374.494 1129.45 373.42 1124.81 373.42C1121.73 373.42 1118.9 374.079 1116.31 375.397C1113.72 376.667 1111.5 378.571 1109.65 381.11C1107.79 383.649 1106.35 386.75 1105.33 390.412C1104.3 394.074 1103.79 398.298 1103.79 403.083V406.159C1103.79 409.919 1104.3 413.459 1105.33 416.779C1106.4 420.051 1107.94 422.932 1109.94 425.422C1111.99 427.912 1114.46 429.865 1117.34 431.281C1120.27 432.697 1123.59 433.405 1127.3 433.405C1132.08 433.405 1136.14 432.429 1139.46 430.476C1142.78 428.522 1145.68 425.91 1148.17 422.639L1156.38 429.157C1154.67 431.745 1152.49 434.211 1149.86 436.555C1147.22 438.898 1143.97 440.803 1140.12 442.268C1136.31 443.732 1131.79 444.465 1126.57 444.465ZM1187.94 330.5V443H1174.32V330.5H1187.94ZM1256.42 429.45V388.654C1256.42 385.529 1255.79 382.819 1254.52 380.524C1253.3 378.181 1251.44 376.374 1248.95 375.104C1246.46 373.835 1243.39 373.2 1239.72 373.2C1236.31 373.2 1233.3 373.786 1230.72 374.958C1228.18 376.13 1226.17 377.668 1224.71 379.572C1223.29 381.477 1222.59 383.527 1222.59 385.725H1209.04C1209.04 382.893 1209.77 380.085 1211.23 377.302C1212.7 374.519 1214.8 372.004 1217.53 369.758C1220.32 367.463 1223.64 365.656 1227.49 364.338C1231.4 362.971 1235.75 362.287 1240.53 362.287C1246.29 362.287 1251.37 363.264 1255.76 365.217C1260.21 367.17 1263.67 370.124 1266.17 374.079C1268.7 377.985 1269.97 382.893 1269.97 388.801V425.715C1269.97 428.352 1270.19 431.159 1270.63 434.138C1271.12 437.116 1271.83 439.68 1272.76 441.828V443H1258.62C1257.94 441.438 1257.4 439.362 1257.01 436.774C1256.62 434.138 1256.42 431.696 1256.42 429.45ZM1258.77 394.953L1258.91 404.475H1245.22C1241.36 404.475 1237.92 404.792 1234.89 405.427C1231.86 406.013 1229.32 406.916 1227.27 408.137C1225.22 409.357 1223.66 410.896 1222.59 412.751C1221.51 414.558 1220.97 416.682 1220.97 419.123C1220.97 421.613 1221.54 423.884 1222.66 425.935C1223.78 427.985 1225.47 429.621 1227.71 430.842C1230.01 432.014 1232.82 432.6 1236.14 432.6C1240.29 432.6 1243.95 431.721 1247.12 429.963C1250.3 428.205 1252.81 426.057 1254.67 423.518C1256.57 420.979 1257.6 418.513 1257.74 416.12L1263.53 422.639C1263.19 424.689 1262.26 426.96 1260.75 429.45C1259.23 431.94 1257.21 434.333 1254.67 436.628C1252.18 438.874 1249.2 440.754 1245.73 442.268C1242.31 443.732 1238.46 444.465 1234.16 444.465C1228.79 444.465 1224.08 443.415 1220.02 441.315C1216.02 439.216 1212.89 436.408 1210.65 432.893C1208.45 429.328 1207.35 425.349 1207.35 420.954C1207.35 416.706 1208.18 412.971 1209.84 409.748C1211.5 406.477 1213.89 403.767 1217.02 401.618C1220.14 399.421 1223.9 397.761 1228.3 396.638C1232.69 395.515 1237.6 394.953 1243.02 394.953H1258.77ZM1304.84 380.671V443H1291.29V363.752H1304.1L1304.84 380.671ZM1301.61 400.373L1295.97 400.153C1296.02 394.733 1296.83 389.729 1298.39 385.139C1299.95 380.5 1302.15 376.472 1304.98 373.054C1307.82 369.636 1311.18 366.999 1315.09 365.144C1319.05 363.239 1323.42 362.287 1328.2 362.287C1332.11 362.287 1335.62 362.824 1338.75 363.898C1341.87 364.924 1344.53 366.584 1346.73 368.879C1348.98 371.174 1350.69 374.152 1351.86 377.814C1353.03 381.428 1353.62 385.847 1353.62 391.071V443H1339.99V390.925C1339.99 386.774 1339.38 383.454 1338.16 380.964C1336.94 378.425 1335.16 376.594 1332.82 375.471C1330.47 374.299 1327.59 373.713 1324.17 373.713C1320.8 373.713 1317.73 374.421 1314.94 375.837C1312.21 377.253 1309.84 379.206 1307.84 381.696C1305.89 384.187 1304.35 387.043 1303.23 390.266C1302.15 393.439 1301.61 396.809 1301.61 400.373ZM1407.08 444.465C1401.57 444.465 1396.56 443.537 1392.07 441.682C1387.62 439.777 1383.79 437.116 1380.57 433.698C1377.4 430.28 1374.95 426.228 1373.25 421.54C1371.54 416.853 1370.68 411.726 1370.68 406.159V403.083C1370.68 396.638 1371.63 390.9 1373.54 385.871C1375.44 380.793 1378.03 376.496 1381.3 372.98C1384.57 369.465 1388.28 366.804 1392.43 364.997C1396.58 363.19 1400.88 362.287 1405.33 362.287C1410.99 362.287 1415.87 363.264 1419.97 365.217C1424.12 367.17 1427.52 369.904 1430.15 373.42C1432.79 376.887 1434.74 380.988 1436.01 385.725C1437.28 390.412 1437.92 395.539 1437.92 401.105V407.185H1378.74V396.125H1424.37V395.1C1424.17 391.584 1423.44 388.166 1422.17 384.846C1420.95 381.525 1419 378.791 1416.31 376.643C1413.63 374.494 1409.96 373.42 1405.33 373.42C1402.25 373.42 1399.42 374.079 1396.83 375.397C1394.24 376.667 1392.02 378.571 1390.16 381.11C1388.31 383.649 1386.87 386.75 1385.84 390.412C1384.82 394.074 1384.3 398.298 1384.3 403.083V406.159C1384.3 409.919 1384.82 413.459 1385.84 416.779C1386.92 420.051 1388.46 422.932 1390.46 425.422C1392.51 427.912 1394.97 429.865 1397.85 431.281C1400.78 432.697 1404.1 433.405 1407.82 433.405C1412.6 433.405 1416.65 432.429 1419.97 430.476C1423.29 428.522 1426.2 425.91 1428.69 422.639L1436.89 429.157C1435.18 431.745 1433.01 434.211 1430.37 436.555C1427.74 438.898 1424.49 440.803 1420.63 442.268C1416.82 443.732 1412.31 444.465 1407.08 444.465ZM1500.47 429.45V388.654C1500.47 385.529 1499.83 382.819 1498.56 380.524C1497.34 378.181 1495.49 376.374 1493 375.104C1490.51 373.835 1487.43 373.2 1483.77 373.2C1480.35 373.2 1477.35 373.786 1474.76 374.958C1472.22 376.13 1470.22 377.668 1468.75 379.572C1467.34 381.477 1466.63 383.527 1466.63 385.725H1453.08C1453.08 382.893 1453.81 380.085 1455.28 377.302C1456.74 374.519 1458.84 372.004 1461.58 369.758C1464.36 367.463 1467.68 365.656 1471.54 364.338C1475.44 362.971 1479.79 362.287 1484.57 362.287C1490.33 362.287 1495.41 363.264 1499.81 365.217C1504.25 367.17 1507.72 370.124 1510.21 374.079C1512.75 377.985 1514.02 382.893 1514.02 388.801V425.715C1514.02 428.352 1514.24 431.159 1514.68 434.138C1515.16 437.116 1515.87 439.68 1516.8 441.828V443H1502.66C1501.98 441.438 1501.44 439.362 1501.05 436.774C1500.66 434.138 1500.47 431.696 1500.47 429.45ZM1502.81 394.953L1502.96 404.475H1489.26C1485.4 404.475 1481.96 404.792 1478.93 405.427C1475.91 406.013 1473.37 406.916 1471.32 408.137C1469.27 409.357 1467.7 410.896 1466.63 412.751C1465.55 414.558 1465.02 416.682 1465.02 419.123C1465.02 421.613 1465.58 423.884 1466.7 425.935C1467.83 427.985 1469.51 429.621 1471.76 430.842C1474.05 432.014 1476.86 432.6 1480.18 432.6C1484.33 432.6 1487.99 431.721 1491.17 429.963C1494.34 428.205 1496.85 426.057 1498.71 423.518C1500.61 420.979 1501.64 418.513 1501.79 416.12L1507.57 422.639C1507.23 424.689 1506.3 426.96 1504.79 429.45C1503.27 431.94 1501.25 434.333 1498.71 436.628C1496.22 438.874 1493.24 440.754 1489.77 442.268C1486.36 443.732 1482.5 444.465 1478.2 444.465C1472.83 444.465 1468.12 443.415 1464.07 441.315C1460.06 439.216 1456.94 436.408 1454.69 432.893C1452.49 429.328 1451.39 425.349 1451.39 420.954C1451.39 416.706 1452.22 412.971 1453.88 409.748C1455.54 406.477 1457.94 403.767 1461.06 401.618C1464.19 399.421 1467.95 397.761 1472.34 396.638C1476.74 395.515 1481.64 394.953 1487.06 394.953H1502.81ZM1614.07 345.808L1578.76 443H1564.33L1604.98 336.359H1614.29L1614.07 345.808ZM1643.66 443L1608.28 345.808L1608.06 336.359H1617.36L1658.16 443H1643.66ZM1641.82 403.522V415.095H1581.91V403.522H1641.82ZM1702.1 433.332C1705.33 433.332 1708.3 432.673 1711.04 431.354C1713.77 430.036 1716.02 428.229 1717.78 425.935C1719.53 423.591 1720.54 420.93 1720.78 417.951H1733.67C1733.43 422.639 1731.84 427.009 1728.91 431.062C1726.03 435.065 1722.24 438.312 1717.56 440.803C1712.87 443.244 1707.72 444.465 1702.1 444.465C1696.15 444.465 1690.95 443.415 1686.5 441.315C1682.11 439.216 1678.45 436.335 1675.52 432.673C1672.63 429.011 1670.46 424.812 1669 420.075C1667.58 415.29 1666.87 410.236 1666.87 404.914V401.838C1666.87 396.516 1667.58 391.486 1669 386.75C1670.46 381.965 1672.63 377.741 1675.52 374.079C1678.45 370.417 1682.11 367.536 1686.5 365.437C1690.95 363.337 1696.15 362.287 1702.1 362.287C1708.3 362.287 1713.72 363.557 1718.36 366.096C1723 368.586 1726.64 372.004 1729.28 376.35C1731.96 380.646 1733.43 385.529 1733.67 390.998H1720.78C1720.54 387.727 1719.61 384.772 1718 382.136C1716.43 379.499 1714.29 377.399 1711.55 375.837C1708.87 374.226 1705.72 373.42 1702.1 373.42C1697.95 373.42 1694.46 374.25 1691.63 375.91C1688.85 377.521 1686.62 379.719 1684.96 382.502C1683.35 385.236 1682.18 388.288 1681.45 391.657C1680.76 394.978 1680.42 398.371 1680.42 401.838V404.914C1680.42 408.381 1680.76 411.799 1681.45 415.168C1682.13 418.537 1683.28 421.589 1684.89 424.323C1686.55 427.058 1688.77 429.255 1691.56 430.915C1694.39 432.526 1697.9 433.332 1702.1 433.332ZM1795.63 429.45V388.654C1795.63 385.529 1795 382.819 1793.73 380.524C1792.51 378.181 1790.65 376.374 1788.16 375.104C1785.67 373.835 1782.6 373.2 1778.93 373.2C1775.52 373.2 1772.51 373.786 1769.92 374.958C1767.39 376.13 1765.38 377.668 1763.92 379.572C1762.5 381.477 1761.79 383.527 1761.79 385.725H1748.25C1748.25 382.893 1748.98 380.085 1750.44 377.302C1751.91 374.519 1754.01 372.004 1756.74 369.758C1759.52 367.463 1762.84 365.656 1766.7 364.338C1770.61 362.971 1774.95 362.287 1779.74 362.287C1785.5 362.287 1790.58 363.264 1794.97 365.217C1799.42 367.17 1802.88 370.124 1805.37 374.079C1807.91 377.985 1809.18 382.893 1809.18 388.801V425.715C1809.18 428.352 1809.4 431.159 1809.84 434.138C1810.33 437.116 1811.04 439.68 1811.97 441.828V443H1797.83C1797.15 441.438 1796.61 439.362 1796.22 436.774C1795.83 434.138 1795.63 431.696 1795.63 429.45ZM1797.98 394.953L1798.12 404.475H1784.43C1780.57 404.475 1777.13 404.792 1774.1 405.427C1771.07 406.013 1768.53 406.916 1766.48 408.137C1764.43 409.357 1762.87 410.896 1761.79 412.751C1760.72 414.558 1760.18 416.682 1760.18 419.123C1760.18 421.613 1760.75 423.884 1761.87 425.935C1762.99 427.985 1764.68 429.621 1766.92 430.842C1769.22 432.014 1772.02 432.6 1775.34 432.6C1779.5 432.6 1783.16 431.721 1786.33 429.963C1789.5 428.205 1792.02 426.057 1793.88 423.518C1795.78 420.979 1796.8 418.513 1796.95 416.12L1802.74 422.639C1802.4 424.689 1801.47 426.96 1799.95 429.45C1798.44 431.94 1796.41 434.333 1793.88 436.628C1791.38 438.874 1788.41 440.754 1784.94 442.268C1781.52 443.732 1777.66 444.465 1773.37 444.465C1768 444.465 1763.28 443.415 1759.23 441.315C1755.23 439.216 1752.1 436.408 1749.86 432.893C1747.66 429.328 1746.56 425.349 1746.56 420.954C1746.56 416.706 1747.39 412.971 1749.05 409.748C1750.71 406.477 1753.1 403.767 1756.23 401.618C1759.35 399.421 1763.11 397.761 1767.51 396.638C1771.9 395.515 1776.81 394.953 1782.23 394.953H1797.98ZM1844.05 378.986V473.469H1830.42V363.752H1842.87L1844.05 378.986ZM1897.44 402.717V404.255C1897.44 410.017 1896.76 415.363 1895.39 420.295C1894.02 425.178 1892.02 429.426 1889.38 433.039C1886.79 436.652 1883.6 439.46 1879.79 441.462C1875.98 443.464 1871.61 444.465 1866.68 444.465C1861.65 444.465 1857.21 443.635 1853.35 441.975C1849.49 440.314 1846.22 437.897 1843.53 434.724C1840.85 431.55 1838.7 427.741 1837.09 423.298C1835.53 418.854 1834.45 413.85 1833.87 408.283V400.08C1834.45 394.221 1835.55 388.972 1837.16 384.333C1838.77 379.694 1840.9 375.739 1843.53 372.468C1846.22 369.147 1849.47 366.633 1853.27 364.924C1857.08 363.166 1861.48 362.287 1866.46 362.287C1871.44 362.287 1875.86 363.264 1879.71 365.217C1883.57 367.121 1886.82 369.855 1889.46 373.42C1892.09 376.984 1894.07 381.257 1895.39 386.237C1896.76 391.169 1897.44 396.662 1897.44 402.717ZM1883.82 404.255V402.717C1883.82 398.762 1883.4 395.051 1882.57 391.584C1881.74 388.068 1880.45 384.992 1878.69 382.355C1876.98 379.67 1874.78 377.57 1872.1 376.057C1869.41 374.494 1866.21 373.713 1862.5 373.713C1859.08 373.713 1856.11 374.299 1853.57 375.471C1851.08 376.643 1848.95 378.229 1847.2 380.231C1845.44 382.185 1844 384.431 1842.87 386.97C1841.8 389.46 1840.99 392.048 1840.46 394.733V413.703C1841.43 417.121 1842.8 420.344 1844.56 423.371C1846.32 426.35 1848.66 428.767 1851.59 430.622C1854.52 432.429 1858.21 433.332 1862.65 433.332C1866.31 433.332 1869.46 432.575 1872.1 431.062C1874.78 429.499 1876.98 427.375 1878.69 424.689C1880.45 422.004 1881.74 418.928 1882.57 415.461C1883.4 411.945 1883.82 408.21 1883.82 404.255ZM1963.21 424.689V363.752H1976.83V443H1963.87L1963.21 424.689ZM1965.77 407.99L1971.41 407.844C1971.41 413.117 1970.85 418 1969.73 422.492C1968.66 426.936 1966.9 430.793 1964.46 434.064C1962.01 437.336 1958.82 439.899 1954.86 441.755C1950.91 443.562 1946.1 444.465 1940.43 444.465C1936.58 444.465 1933.04 443.903 1929.81 442.78C1926.64 441.657 1923.9 439.924 1921.61 437.58C1919.31 435.236 1917.53 432.185 1916.26 428.425C1915.04 424.665 1914.43 420.148 1914.43 414.875V363.752H1927.98V415.021C1927.98 418.586 1928.37 421.54 1929.15 423.884C1929.98 426.179 1931.08 428.01 1932.45 429.377C1933.87 430.695 1935.43 431.623 1937.14 432.16C1938.89 432.697 1940.7 432.966 1942.56 432.966C1948.32 432.966 1952.88 431.867 1956.25 429.67C1959.62 427.424 1962.04 424.421 1963.5 420.661C1965.02 416.853 1965.77 412.629 1965.77 407.99ZM2012.21 330.5V443H1998.59V330.5H2012.21ZM2065.68 433.332C2068.9 433.332 2071.88 432.673 2074.61 431.354C2077.35 430.036 2079.59 428.229 2081.35 425.935C2083.11 423.591 2084.11 420.93 2084.35 417.951H2097.24C2097 422.639 2095.41 427.009 2092.48 431.062C2089.6 435.065 2085.82 438.312 2081.13 440.803C2076.44 443.244 2071.29 444.465 2065.68 444.465C2059.72 444.465 2054.52 443.415 2050.08 441.315C2045.68 439.216 2042.02 436.335 2039.09 432.673C2036.21 429.011 2034.04 424.812 2032.57 420.075C2031.16 415.29 2030.45 410.236 2030.45 404.914V401.838C2030.45 396.516 2031.16 391.486 2032.57 386.75C2034.04 381.965 2036.21 377.741 2039.09 374.079C2042.02 370.417 2045.68 367.536 2050.08 365.437C2054.52 363.337 2059.72 362.287 2065.68 362.287C2071.88 362.287 2077.3 363.557 2081.94 366.096C2086.58 368.586 2090.21 372.004 2092.85 376.35C2095.54 380.646 2097 385.529 2097.24 390.998H2084.35C2084.11 387.727 2083.18 384.772 2081.57 382.136C2080.01 379.499 2077.86 377.399 2075.12 375.837C2072.44 374.226 2069.29 373.42 2065.68 373.42C2061.53 373.42 2058.04 374.25 2055.2 375.91C2052.42 377.521 2050.2 379.719 2048.54 382.502C2046.93 385.236 2045.75 388.288 2045.02 391.657C2044.34 394.978 2044 398.371 2044 401.838V404.914C2044 408.381 2044.34 411.799 2045.02 415.168C2045.71 418.537 2046.85 421.589 2048.46 424.323C2050.12 427.058 2052.35 429.255 2055.13 430.915C2057.96 432.526 2061.48 433.332 2065.68 433.332ZM2108.89 404.255V402.57C2108.89 396.857 2109.72 391.56 2111.38 386.677C2113.04 381.745 2115.43 377.473 2118.56 373.859C2121.68 370.197 2125.47 367.365 2129.91 365.363C2134.35 363.312 2139.33 362.287 2144.85 362.287C2150.42 362.287 2155.42 363.312 2159.87 365.363C2164.36 367.365 2168.17 370.197 2171.29 373.859C2174.47 377.473 2176.88 381.745 2178.54 386.677C2180.2 391.56 2181.03 396.857 2181.03 402.57V404.255C2181.03 409.968 2180.2 415.266 2178.54 420.148C2176.88 425.031 2174.47 429.304 2171.29 432.966C2168.17 436.579 2164.38 439.411 2159.94 441.462C2155.54 443.464 2150.56 444.465 2145 444.465C2139.43 444.465 2134.43 443.464 2129.98 441.462C2125.54 439.411 2121.73 436.579 2118.56 432.966C2115.43 429.304 2113.04 425.031 2111.38 420.148C2109.72 415.266 2108.89 409.968 2108.89 404.255ZM2122.44 402.57V404.255C2122.44 408.21 2122.9 411.945 2123.83 415.461C2124.76 418.928 2126.15 422.004 2128.01 424.689C2129.91 427.375 2132.28 429.499 2135.11 431.062C2137.94 432.575 2141.24 433.332 2145 433.332C2148.71 433.332 2151.96 432.575 2154.74 431.062C2157.57 429.499 2159.92 427.375 2161.77 424.689C2163.63 422.004 2165.02 418.928 2165.95 415.461C2166.92 411.945 2167.41 408.21 2167.41 404.255V402.57C2167.41 398.664 2166.92 394.978 2165.95 391.511C2165.02 387.995 2163.6 384.895 2161.7 382.209C2159.84 379.475 2157.5 377.326 2154.67 375.764C2151.88 374.201 2148.61 373.42 2144.85 373.42C2141.14 373.42 2137.87 374.201 2135.04 375.764C2132.25 377.326 2129.91 379.475 2128.01 382.209C2126.15 384.895 2124.76 387.995 2123.83 391.511C2122.9 394.978 2122.44 398.664 2122.44 402.57Z" fill="#17A600"/>
</g>
<defs>
<filter id="filter0_d_903_44" x="772.293" y="330.5" width="1424.74" height="150.969" filterUnits="userSpaceOnUse" color-interpolation-filters="sRGB">
<feFlood flood-opacity="0" result="BackgroundImageFix"/>
<feColorMatrix in="SourceAlpha" type="matrix" values="0 0 0 0 0 0 0 0 0 0 0 0 0 0 0 0 0 0 127 0" result="hardAlpha"/>
<feOffset dx="12" dy="4"/>
<feGaussianBlur stdDeviation="2"/>
<feComposite in2="hardAlpha" operator="out"/>
<feColorMatrix type="matrix" values="0 0 0 0 0 0 0 0 0 0 0 0 0 0 0 0 0 0 0.25 0"/>
<feBlend mode="normal" in2="BackgroundImageFix" result="effect1_dropShadow_903_44"/>
<feBlend mode="normal" in="SourceGraphic" in2="effect1_dropShadow_903_44" result="shape"/>
</filter>
</defs>
</svg>
